<svg width="60" height="60" viewBox="0 0 60 60" fill="none" xmlns="http://www.w3.org/2000/svg">
<g clip-path="url(#clip0_698_609)">
<path d="M28.707 60.3584C25.3559 60.3584 22.3021 59.3106 19.4229 57.6916C15.4534 55.4638 12.1117 52.4619 8.99178 49.1957C6.21173 46.2835 3.63936 43.2108 1.73722 39.6378C0.529965 37.4779 -0.217246 35.0915 -0.457511 32.6287C-0.652562 29.8482 -0.00977769 27.073 1.38795 24.6614C1.83341 23.8463 2.32672 23.0583 2.86529 22.3015C3.15698 21.8703 3.54259 21.5108 3.99314 21.25C4.44369 20.9892 4.9475 20.8339 5.46668 20.7957C5.98587 20.7576 6.50692 20.8376 6.99076 21.0297C7.47459 21.2218 7.90863 21.5211 8.26022 21.905C9.60541 23.2502 10.9506 24.5906 12.2957 25.9405C12.6245 26.2271 12.8889 26.5802 13.0713 26.9763C13.2538 27.3725 13.3501 27.8029 13.3542 28.239C13.3582 28.6752 13.2697 29.1072 13.0946 29.5067C12.9195 29.9062 12.6617 30.264 12.3383 30.5566C11.366 31.5541 10.3795 32.5374 9.37885 33.5066C9.26126 33.5936 9.18151 33.7223 9.15604 33.8664C9.13058 34.0104 9.16131 34.1587 9.24195 34.2807C11.1775 38.4271 13.9664 42.1183 17.4263 45.113C20.1298 47.4617 23.0668 49.5272 26.1913 51.2772C26.2728 51.3425 26.3672 51.3897 26.4682 51.4159C26.5693 51.4422 26.6747 51.4467 26.7777 51.4293C26.8806 51.412 26.9787 51.373 27.0656 51.3151C27.1524 51.2571 27.226 51.1815 27.2816 51.0931C28.1737 50.1492 29.1035 49.2382 30.0333 48.332C31.4493 46.916 33.2712 46.916 34.6872 48.332C35.9459 49.5906 37.2045 50.8572 38.4632 52.1315C38.8407 52.4955 39.1306 52.9404 39.3111 53.4328C39.4916 53.9251 39.5581 54.452 39.5053 54.9737C39.4526 55.4955 39.2822 55.9984 39.0068 56.4447C38.7314 56.891 38.3583 57.2689 37.9156 57.55C35.1689 59.3284 31.9787 60.3013 28.707 60.3584Z" fill="white"/>
<path d="M51.5044 47.27C52.1888 48.2517 52.8685 49.2193 53.5434 50.1916C54.0673 50.9468 54.0154 51.0412 53.147 51.1356C49.371 51.466 45.5951 51.7807 41.8191 52.0796C40.9553 52.1504 40.9034 52.0796 41.281 51.2583L46.1803 40.8273C46.4399 40.275 46.6193 40.2703 46.9874 40.7942L49.0595 43.7678C49.7061 42.8804 50.348 42.078 50.905 41.219C60.0853 27.0592 51.9623 8.0944 35.3811 4.95091C30.3515 4.01017 25.1527 4.72017 20.5596 6.97505C15.9664 9.22993 12.2251 12.9089 9.89335 17.4635C9.7414 17.8417 9.48672 18.1698 9.1581 18.4108C8.82948 18.6519 8.44005 18.7962 8.03371 18.8276C7.66082 18.8491 7.28908 18.7688 6.95836 18.5952C6.62764 18.4216 6.35036 18.1613 6.15634 17.8421C5.96231 17.5229 5.85884 17.157 5.85696 16.7834C5.85508 16.4099 5.95492 16.0429 6.14573 15.7218C7.0544 14.0303 8.09439 12.4127 9.25616 10.8839C13.6326 5.29357 20.0159 1.62951 27.0504 0.669914C41.3518 -1.5107 55.2379 8.04248 58.2681 22.2684C60.2363 31.5195 57.9896 39.77 51.8018 46.9349C51.6838 47.034 51.6083 47.1378 51.5044 47.27Z" fill="white"/>
<path d="M21.2637 33.8653H22.826C24.6385 33.8653 26.4462 33.8653 28.254 33.8653C28.6854 33.8679 29.1138 33.938 29.5236 34.073C29.86 34.1821 30.1434 34.413 30.3181 34.7205C30.4928 35.0279 30.5461 35.3896 30.4676 35.7344C30.4313 36.0743 30.2776 36.3909 30.0329 36.6296C29.7882 36.8683 29.4678 37.0141 29.1271 37.0418H29.0139C25.4125 37.0418 21.8159 37.0749 18.2146 37.0418C17.9139 37.0463 17.617 36.9753 17.3508 36.8353C17.0847 36.6954 16.8579 36.4909 16.6912 36.2406C16.5245 35.9903 16.4233 35.7023 16.3967 35.4028C16.3701 35.1032 16.419 34.8018 16.539 34.5261C16.8284 33.7342 17.2621 33.0029 17.8182 32.3691C19.6428 30.3594 21.653 28.5262 23.8219 26.894C24.8441 26.168 25.6408 25.1684 26.1205 24.0101C26.8238 22.2354 26.1205 20.4748 24.5016 19.814C24.0993 19.65 23.6687 19.5669 23.2343 19.5694C22.8 19.572 22.3704 19.6602 21.9701 19.829C21.5699 19.9978 21.2068 20.2438 20.9017 20.5531C20.5967 20.8623 20.3556 21.2287 20.1923 21.6312C19.9797 22.2136 19.7354 22.784 19.4607 23.3398C19.2989 23.6815 19.017 23.9516 18.6688 24.0988C18.3206 24.2459 17.9304 24.2597 17.5727 24.1375C17.2319 24.0409 16.9358 23.8279 16.7357 23.5356C16.5357 23.2433 16.4443 22.8901 16.4776 22.5374C16.475 21.597 16.7228 20.6728 17.1957 19.8599C17.6685 19.0469 18.3493 18.3746 19.1681 17.9119C20.3703 17.1853 21.7377 16.7767 23.1415 16.7247C24.5453 16.6726 25.9393 16.9789 27.192 17.6145C30.0853 18.9644 31.0812 22.7782 29.3395 25.5818C28.7128 26.5628 27.9607 27.4577 27.1023 28.2439C25.6202 29.6268 24.0155 30.887 22.4909 32.2322C22.0258 32.693 21.5892 33.1816 21.1835 33.6954L21.2637 33.8653Z" fill="white"/>
<path d="M44.887 29.6504C45.5242 29.7165 46.0906 29.7354 46.6381 29.8345C46.8051 29.8415 46.9688 29.8823 47.1195 29.9546C47.2702 30.0268 47.4046 30.129 47.5145 30.2548C47.6244 30.3806 47.7077 30.5275 47.759 30.6865C47.8104 30.8455 47.8289 31.0133 47.8134 31.1797C47.8394 31.3488 47.8314 31.5214 47.79 31.6874C47.7486 31.8534 47.6746 32.0095 47.5722 32.1465C47.4699 32.2836 47.3412 32.3989 47.1938 32.4858C47.0464 32.5726 46.8832 32.6292 46.7136 32.6523C46.1085 32.7454 45.4987 32.8053 44.887 32.8317C44.887 33.3839 44.887 33.9408 44.887 34.4931C44.8918 34.9833 44.8682 35.4735 44.8162 35.961C44.7847 36.3776 44.597 36.7668 44.2906 37.0509C43.9843 37.3349 43.582 37.4927 43.1642 37.4927C42.7465 37.4927 42.3442 37.3349 42.0378 37.0509C41.7315 36.7668 41.5438 36.3776 41.5122 35.961C41.4178 35.1586 41.4509 34.342 41.4273 33.5349C41.4273 33.2989 41.4273 33.0629 41.4273 32.7514H40.7476C38.7133 32.7514 36.6743 32.7514 34.64 32.7514C34.2267 32.7607 33.8139 32.7146 33.4128 32.6145C33.1025 32.5436 32.8144 32.3978 32.5734 32.1898C32.3325 31.9818 32.1462 31.718 32.0307 31.4215C31.9153 31.1249 31.8742 30.8045 31.9111 30.4884C31.948 30.1723 32.0616 29.87 32.2423 29.6079C32.8842 28.612 33.63 27.6822 34.3379 26.7288C36.3738 23.9943 38.4191 21.2631 40.4739 18.5349C40.7996 18.096 41.1582 17.6806 41.5122 17.27C41.7603 16.981 42.0928 16.7772 42.4629 16.6874C42.833 16.5976 43.222 16.6264 43.5749 16.7697C43.9231 16.87 44.2307 17.0779 44.4536 17.3636C44.6766 17.6493 44.8035 17.9981 44.8162 18.3603C44.8619 18.733 44.8839 19.1082 44.8823 19.4836C44.8823 22.5925 44.8823 25.703 44.8823 28.815L44.887 29.6504ZM41.4131 21.7492L35.5604 29.6646H41.4131V21.7492Z" fill="white"/>
</g>
<defs>
<clipPath id="clip0_698_609">
<rect width="59.4289" height="60" fill="white"/>
</clipPath>
</defs>
</svg>
